<svg xmlns="http://www.w3.org/2000/svg" viewBox="0 0 32 32" fill="none">
  <!-- Document page -->
  <path d="M6 4a2 2 0 012-2h10l8 8v18a2 2 0 01-2 2H8a2 2 0 01-2-2V4z" fill="currentColor" opacity="0.1"/>
  <path d="M6 4a2 2 0 012-2h10l8 8v18a2 2 0 01-2 2H8a2 2 0 01-2-2V4z" stroke="currentColor" stroke-width="1.5" fill="none"/>
  <!-- Page fold -->
  <path d="M16 2v6a2 2 0 002 2h6" stroke="currentColor" stroke-width="1.5" fill="none"/>
  <!-- Git branch lines inside the document -->
  <circle cx="13" cy="16" r="1.5" fill="currentColor"/>
  <circle cx="13" cy="22" r="1.5" fill="currentColor"/>
  <circle cx="19" cy="19" r="1.5" fill="currentColor"/>
  <line x1="13" y1="17.5" x2="13" y2="20.5" stroke="currentColor" stroke-width="1.5"/>
  <path d="M13 17.5c0 1.5 1.5 1.5 3 1.5s3 0 3 0" stroke="currentColor" stroke-width="1.5" fill="none" stroke-linecap="round"/>
</svg>
